<svg width="1150" height="200" xmlns="http://www.w3.org/2000/svg">

 <metadata id="metadata5">image/svg+xml</metadata>
 <g>
  <title>Layer 1</title>
  <g stroke="null" id="layer1">
   <g font-style="normal" font-weight="normal" font-size="22.931669px" font-family="sans-serif" fill="#00aa88" stroke-width="0.573292" id="text848">
    <path stroke="null" fill="#00aa88" stroke-width="0.573292" id="path1326" d="m331.492876,43.574242c-12.993491,0 -17.805908,8.020672 -17.805908,19.730875l0,92.558878l21.335037,0c0,-30.478664 0,-60.957328 0,-91.435922l18.126712,0c24.543361,0 21.335107,33.686919 4.010406,36.895173c-4.972889,0.802081 -16.041413,0.160402 -18.287184,-4.33121c-3.689531,5.293694 -4.652015,13.474767 0,19.41014l31.120273,39.461819l26.147454,0l-28.072421,-35.611886c33.686919,-12.672756 35.130679,-76.677867 -12.031077,-76.677867l-24.543292,0z"/>
    <path stroke="null" fill="#00aa88" stroke-width="0.573292" id="path1328" d="m473.985538,155.863995l20.85383,0l0,-83.094446l-20.85383,0l0,8.822823l0,25.345373c0,14.918458 -4.812417,31.922354 -21.816314,31.922354c-30.318192,0 -29.676513,-48.926251 0,-48.926251c6.095775,0 13.795642,1.44376 17.324701,6.737384c3.849934,-6.897786 0.481207,-25.18497 -20.051679,-25.987052c-21.014232,-0.802081 -40.584775,17.645506 -40.584775,43.472155c0,40.2639 40.905579,56.626118 65.128066,32.564033l0,9.143627z"/>
    <path stroke="null" fill="#00aa88" stroke-width="0.573292" id="path1330" d="m531.451302,72.929951c-10.908122,-0.641679 -20.693358,5.614498 -20.693358,16.683092c0,32.403561 0,64.967594 0,97.531627l20.693358,0l0,-65.609273c0,-14.918528 4.812417,-31.761952 21.655911,-31.761952c29.997387,0 29.516181,48.605446 0,48.605446c-5.935303,0 -13.63517,-1.44376 -17.324701,-6.737384c-3.689531,6.897786 -1.44376,25.024568 20.051749,25.826579c20.693358,0.641679 40.2639,-17.645506 40.2639,-43.15128c0,-39.943096 -40.584775,-56.305313 -64.646859,-32.403631l0,-8.983225z"/>
    <path stroke="null" fill="#00aa88" stroke-width="0.573292" id="path1332" d="m612.031777,89.613043l0,66.250952l20.693358,0l0,-83.094446c-11.389398,0.160402 -19.891277,3.849934 -20.693358,16.843494zm10.426915,-51.01162c-3.689531,0 -6.897856,1.283288 -9.464432,3.849934c-7.058258,7.058188 -3.047852,23.420406 -1.122886,30.15779c2.726978,-7.21859 14.276779,-5.133221 20.051679,-10.908122c2.566646,-2.727048 3.849934,-5.7749 3.849934,-9.624834c0,-3.689531 -1.283288,-6.897786 -4.010336,-9.464432c-2.566576,-2.727048 -5.614498,-4.010336 -9.303959,-4.010336z"/>
    <path stroke="null" fill="#00aa88" stroke-width="0.573292" id="path1334" d="m711.901933,155.703592l20.212151,0l0,-95.60673c0,-8.501948 -7.699867,-16.041413 -20.212151,-16.362218l0,64.325985c0,14.597653 -4.812417,31.120273 -21.335037,31.120273c-29.355778,0 -28.874502,-47.642893 0.160192,-47.642893c5.7749,0 13.314365,1.44369 16.843424,6.576982c3.689531,-6.737384 1.764565,-24.382959 -19.570472,-25.18504c-20.372553,-0.802011 -39.461819,17.164299 -39.461819,42.349269c0,38.980612 39.782624,55.022026 63.363502,31.60155l0.00021,8.822823z"/>
    <path stroke="null" fill="#00aa88" stroke-width="0.573292" id="path1336" d="m806.155142,43.574242c-12.993561,0 -17.805978,8.020672 -17.805978,19.730875l0,92.558878l21.335037,0c0,-30.478664 0,-60.957328 0,-91.435922l18.126782,0c24.543361,0 21.335037,33.686919 4.010336,36.895173c-4.972819,0.802081 -16.041343,0.160402 -18.287184,-4.33121c-3.689531,5.293694 -4.652015,13.474767 0,19.41014l31.120343,39.461819l26.147454,0l-28.072421,-35.611886c33.686919,-12.672756 35.130609,-76.677867 -12.031077,-76.677867l-24.543292,0z"/>
    <path stroke="null" fill="#00aa88" stroke-width="0.573292" id="path1338" d="m926.991963,70.844582c-13.314365,0 -25.024568,5.935303 -33.526516,16.201815c9.304029,-5.614498 22.618325,-3.689531 28.874502,3.849934c14.918528,-3.047852 27.591214,6.897786 27.591214,23.420476c0,32.082756 -45.236719,32.403561 -45.397192,0.320735c0.160192,-12.512284 13.153963,-16.683022 19.730945,-12.031007c-1.924967,-18.126782 -33.04524,-19.570472 -38.82014,-0.802081c-4.491612,15.239332 -0.481277,31.761952 11.068524,43.472155c20.372553,20.372623 54.701151,15.399734 68.657195,-9.143557c16.843424,-29.355778 -4.491612,-65.288468 -38.178531,-65.288468z"/>
    <path stroke="null" fill="#00aa88" stroke-width="0.573292" id="path1340" d="m992.516033,59.93646l0,13.474767l-10.266513,0l0,17.324701l10.266513,0l0,47.963767c0,27.109937 43.632557,18.928863 35.451483,-2.245771c-3.047922,4.972819 -15.239332,6.416509 -15.239332,-0.320804l0,-45.397192l4.491543,0c11.549801,0 14.116446,-8.983155 14.116446,-17.324701l-18.607989,0l0,-29.836985c-10.426915,-0.160402 -20.212151,4.491612 -20.212151,16.362218z"/>
    <path stroke="null" fill="#00aa88" stroke-width="0.573292" id="path1342" d="m1106.24199,155.863995l20.85376,0l0,-83.094446l-20.85376,0l0,8.822823l0,25.345373c0,14.918458 -4.812417,31.922354 -21.816314,31.922354c-30.318262,0 -29.676583,-48.926251 0,-48.926251c6.095705,0 13.795572,1.44376 17.324701,6.737384c3.849934,-6.897786 0.481277,-25.18497 -20.051749,-25.987052c-21.014232,-0.802081 -40.584705,17.645506 -40.584705,43.472155c0,40.2639 40.905509,56.626118 65.128066,32.564033l0,9.143627z"/>
   </g>
   <path fill="#00aa88" stroke-width="0.954228" id="text994" d="m84.535195,6.486698c-78.499723,0 -76.096208,106.534649 -20.025866,127.627998l-46.72469,59.274609l43.521262,0l51.797961,-65.683073c7.742888,-9.879113 6.141664,-23.496025 0,-32.307166c-3.737239,7.476087 -22.160832,8.54427 -30.438021,7.209217c-28.837217,-5.340072 -34.1761,-61.411043 6.674986,-61.411043l30.171361,0l0,0.004827l36.636557,0l0,-0.004827l30.17185,0c40.851575,0 35.512202,56.070971 6.675475,61.411043c-8.2767,1.335053 -26.700852,0.267081 -30.439001,-7.209217c-6.141174,8.811141 -7.742399,22.428053 0,32.307166l51.798451,65.683073l43.522731,0l-46.726159,-59.274609c56.071321,-21.093349 58.473367,-127.627998 -20.025377,-127.627998l-40.850596,0l-24.889839,0l-40.851086,0zm34.976992,152.191646l0,34.710961l1.124914,0l34.386799,0l1.124844,0l0,-34.710961l-36.636557,0z"/>
  </g>
 </g>
</svg>
